<?xml version="1.0" standalone="no"?>
<!DOCTYPE svg PUBLIC "-//W3C//DTD SVG 20010904//EN"
 "http://www.w3.org/TR/2001/REC-SVG-20010904/DTD/svg10.dtd">
<svg version="1.0" xmlns="http://www.w3.org/2000/svg"
 width="566.000000pt" height="441.000000pt" viewBox="0 0 466.000000 441.000000"
 preserveAspectRatio="xMidYMid meet">

<g transform="translate(0.000000,441.000000) scale(0.100000,-0.100000)"
fill="gray" stroke="none">
<path d="M1987 4184 c-96 -23 -191 -102 -215 -179 -8 -29 -8 -35 5 -35 11 0
14 -6 9 -22 -4 -13 -10 -49 -13 -80 -3 -32 -11 -62 -17 -66 -6 -5 -40 -19 -76
-32 -137 -48 -390 -183 -409 -218 -13 -25 -51 -184 -51 -216 l0 -27 75 7 75 7
0 -76 c0 -129 -20 -206 -135 -527 -24 -66 -27 -85 -23 -170 3 -81 8 -101 30
-135 36 -55 72 -87 147 -126 35 -18 65 -39 68 -46 3 -7 -5 -42 -17 -78 -20
-61 -25 -67 -68 -88 l-47 -22 38 -3 c35 -3 37 -5 31 -30 -16 -63 -18 -65 -73
-68 -216 -11 -471 -467 -536 -957 -19 -148 -19 -231 0 -343 52 -300 216 -343
425 -109 20 23 12 19 -38 -15 -53 -38 -69 -44 -115 -44 -65 -1 -103 23 -140
92 -174 320 66 1171 374 1328 54 27 69 30 69 12 0 -6 -34 -118 -75 -247 -41
-130 -77 -250 -81 -267 -5 -26 10 -62 89 -219 l94 -187 -36 -16 c-48 -21 -102
-20 -134 1 -16 10 -34 39 -48 77 -12 33 -25 63 -30 65 -9 6 -39 -81 -39 -116
0 -40 39 -134 65 -159 34 -32 87 -28 188 14 48 20 94 36 102 36 26 0 -71 -209
-160 -345 -131 -202 -292 -316 -401 -286 l-37 10 23 -24 c60 -64 165 -70 277
-15 84 42 215 169 291 285 72 110 161 288 208 418 32 89 43 109 63 114 21 5
51 54 51 82 0 5 -68 -18 -150 -50 -83 -33 -155 -59 -160 -59 -14 0 -46 81 -70
176 -19 76 -21 106 -17 233 4 114 9 160 26 211 12 36 28 88 36 115 7 28 47
165 89 306 42 141 76 261 76 266 0 4 -52 37 -116 72 -125 68 -149 93 -160 168
-9 59 9 147 60 304 48 146 75 270 81 376 l4 67 46 4 c86 7 215 62 259 111 19
21 17 20 -35 -3 -58 -27 -156 -54 -204 -57 -16 0 -76 -1 -132 0 l-102 1 5 38
c17 122 21 129 98 174 80 47 247 123 349 159 l67 24 1 50 c0 27 3 68 7 89 l7
40 110 2 c128 2 255 27 255 51 0 9 -6 13 -14 10 -27 -11 -196 -19 -248 -13
-75 10 -84 16 -65 53 28 53 145 123 208 123 11 0 17 5 14 10 -8 13 -37 12
-108 -6z"/>
<path d="M2912 3903 c-86 -5 -69 -23 23 -23 l73 0 28 -47 c16 -27 27 -54 25
-62 -1 -9 7 -6 27 8 17 11 35 21 41 21 6 0 11 4 11 8 0 14 -35 42 -53 42 -8 0
-25 14 -37 30 -16 22 -29 29 -48 28 -15 -1 -55 -3 -90 -5z"/>
<path d="M2111 3862 c-1 -18 -80 -101 -110 -117 -15 -7 -46 -16 -71 -20 -72
-11 -169 -42 -283 -89 -99 -42 -187 -85 -142 -71 11 4 61 20 110 37 114 37
241 68 283 68 28 0 37 -7 62 -47 17 -26 28 -53 26 -60 -8 -19 3 -16 38 11 28
21 293 96 340 96 15 0 78 -89 76 -107 -1 -9 -120 -33 -120 -24 0 3 -4 12 -9
19 -6 11 -25 9 -97 -8 -49 -12 -94 -27 -101 -34 -22 -20 -213 -600 -200 -608
7 -3 54 -21 105 -38 62 -22 91 -37 88 -45 -12 -32 -117 -185 -126 -185 -6 0
-43 11 -82 25 -39 14 -72 24 -74 22 -1 -1 45 -31 102 -67 57 -36 104 -70 104
-77 0 -6 -18 -58 -40 -114 -22 -56 -38 -100 -35 -97 3 2 37 56 76 119 39 63
103 163 142 222 68 106 71 109 101 103 17 -4 33 -10 37 -14 4 -4 -6 -38 -22
-77 -30 -74 -243 -613 -325 -824 l-48 -124 -64 -28 c-35 -16 -65 -29 -67 -29
-2 0 -7 17 -10 38 -17 104 -16 103 -41 27 -42 -128 -26 -313 37 -437 l20 -40
47 7 c116 17 226 95 278 197 23 44 27 66 28 133 0 57 -5 89 -17 112 -9 18 -17
38 -17 46 0 9 48 34 125 66 68 28 126 51 128 51 1 0 20 -36 42 -80 21 -44 40
-78 42 -77 1 2 -4 38 -12 81 -8 43 -15 111 -15 152 0 71 -3 80 -60 193 l-59
119 82 217 82 216 33 -6 c31 -6 34 -4 52 37 26 57 25 64 -10 77 l-30 10 21 53
c11 29 30 78 41 108 11 30 24 59 28 63 4 5 35 -37 70 -93 l62 -102 -26 -53
c-176 -360 -214 -756 -102 -1063 60 -166 197 -327 336 -395 181 -89 402 -88
620 3 72 31 203 107 243 143 l32 29 -30 -20 c-178 -116 -426 -169 -600 -128
-161 38 -301 138 -395 282 -123 188 -167 456 -120 741 21 129 88 347 105 342
6 -1 65 -93 132 -203 70 -117 127 -200 135 -199 7 1 65 11 128 23 63 11 160
28 215 37 98 16 101 18 182 80 l82 64 -195 247 c-314 396 -357 454 -348 461 5
4 36 30 69 58 211 178 463 269 670 243 84 -11 96 -11 70 -1 -11 5 -62 14 -113
21 -199 28 -418 -36 -631 -184 -98 -67 -213 -176 -291 -275 -56 -72 -65 -79
-75 -63 -7 9 -44 67 -83 129 l-71 112 34 21 c19 12 50 24 69 27 35 5 45 -1 88
-59 12 -16 19 -12 76 44 l63 61 -27 38 c-18 26 -38 42 -63 49 -45 12 -146 13
-188 1 -31 -9 -33 -7 -64 41 -34 53 -31 67 16 68 33 1 142 52 200 95 61 44 76
69 19 30 -45 -31 -134 -64 -199 -75 -27 -5 -62 -11 -76 -15 -24 -6 -30 -1 -58
45 -18 29 -30 54 -27 57 6 6 282 53 314 53 14 0 22 -6 22 -17 0 -14 4 -13 24
6 l25 23 -22 34 c-16 23 -28 32 -42 29 -11 -2 -85 -14 -165 -26 -80 -11 -176
-27 -214 -35 -74 -15 -85 -11 -102 39 -9 28 -47 37 -154 37 -69 0 -100 4 -103
13 -4 9 -6 9 -6 -1z m232 -74 c12 -15 18 -30 15 -33 -14 -14 -343 -94 -352
-85 -6 6 5 25 31 53 23 24 46 54 52 65 12 22 60 30 180 28 47 -1 57 -5 74 -28z
m-9 -308 c6 1 38 7 71 15 79 19 77 19 97 -15 l17 -30 -71 -107 c-94 -142 -211
-322 -242 -372 l-25 -40 -78 26 c-43 14 -82 29 -87 33 -8 8 118 468 132 482 4
4 41 15 82 26 73 18 75 18 84 0 5 -10 14 -18 20 -18z m881 -666 c114 -145 205
-267 203 -270 -5 -4 -122 -25 -213 -38 l-40 -5 -137 215 c-122 191 -136 218
-126 237 20 40 93 135 100 131 3 -2 99 -124 213 -270z m-820 144 c-27 -66 -37
-82 -52 -80 -10 2 -20 5 -21 7 -5 5 92 154 100 155 3 0 -9 -37 -27 -82z m-107
-920 c18 -39 31 -72 30 -72 -2 -1 -36 -16 -75 -33 -55 -23 -73 -28 -73 -17 0
20 71 194 79 194 3 -1 21 -33 39 -72z"/>
<path d="M3865 3830 c-210 -23 -453 -128 -663 -289 -91 -69 -124 -106 -43 -48
63 45 211 121 290 149 197 68 422 67 593 -2 99 -40 152 -74 230 -148 151 -143
237 -322 273 -573 42 -296 -16 -623 -170 -944 -219 -459 -617 -791 -1044 -870
-290 -53 -561 49 -739 280 l-23 30 18 -33 c37 -69 150 -199 218 -250 82 -62
187 -115 282 -143 100 -29 313 -37 423 -15 540 106 1010 523 1253 1111 89 217
137 450 138 682 3 537 -255 929 -684 1042 -92 24 -241 33 -352 21z"/>
<path d="M1680 3555 c-96 -36 -91 -32 -78 -61 12 -26 30 -28 82 -8 16 6 18 4
13 -9 -9 -23 -1 -21 38 8 31 24 32 28 22 55 -12 32 -23 35 -77 15z"/>
<path d="M3079 3443 c-13 -16 -12 -17 4 -4 16 13 21 21 13 21 -2 0 -10 -8 -17
-17z"/>
<path d="M3656 2951 c277 -173 227 -664 -86 -841 -64 -37 -32 -31 58 10 117
54 215 169 257 303 29 93 35 146 24 227 -21 151 -131 287 -254 314 l-30 7 31
-20z"/>
<path d="M3849 1523 c-13 -16 -12 -17 4 -4 16 13 21 21 13 21 -2 0 -10 -8 -17
-17z"/>
</g>
</svg>
